<svg xmlns="http://www.w3.org/2000/svg" viewBox="18 0 160 180" width="80" height="90">
  <defs>
    <radialGradient id="brainFill" cx="48%" cy="44%" r="56%">
      <stop offset="0%" style="stop-color:#0d3a7a;stop-opacity:0.85"/>
      <stop offset="100%" style="stop-color:#011e5c;stop-opacity:0.6"/>
    </radialGradient>
    <linearGradient id="goldScaffold" x1="0%" y1="0%" x2="100%" y2="100%">
      <stop offset="0%" style="stop-color:#f0b429"/>
      <stop offset="50%" style="stop-color:#f7c948"/>
      <stop offset="100%" style="stop-color:#d4911a"/>
    </linearGradient>
    <linearGradient id="goldSoft" x1="0%" y1="0%" x2="100%" y2="100%">
      <stop offset="0%" style="stop-color:#e8a820;stop-opacity:0.7"/>
      <stop offset="100%" style="stop-color:#c07818;stop-opacity:0.5"/>
    </linearGradient>
    <linearGradient id="tealAccent" x1="0%" y1="0%" x2="100%" y2="0%">
      <stop offset="0%" style="stop-color:#38d9c0"/>
      <stop offset="100%" style="stop-color:#22b8a4"/>
    </linearGradient>
    <filter id="goldGlow" x="-20%" y="-20%" width="140%" height="140%">
      <feGaussianBlur stdDeviation="1.8" result="blur"/>
      <feColorMatrix type="matrix" in="blur" values="1 0.5 0 0 0.3  0.6 0.8 0 0 0.1  0 0 0 0 0  0 0 0 0.6 0" result="coloredBlur"/>
      <feMerge><feMergeNode in="coloredBlur"/><feMergeNode in="SourceGraphic"/></feMerge>
    </filter>
    <filter id="brainAura" x="-15%" y="-15%" width="130%" height="130%">
      <feGaussianBlur stdDeviation="5" result="blur"/>
      <feColorMatrix type="matrix" in="blur" values="0 0 0 0 0.05  0.1 0.3 0.6 0 0.2  0 0 1 0 0.4  0 0 0 0.4 0" result="coloredBlur"/>
      <feMerge><feMergeNode in="coloredBlur"/><feMergeNode in="SourceGraphic"/></feMerge>
    </filter>
    <filter id="tealGlow" x="-50%" y="-50%" width="200%" height="200%">
      <feGaussianBlur stdDeviation="2.5" result="blur"/>
      <feMerge><feMergeNode in="blur"/><feMergeNode in="SourceGraphic"/></feMerge>
    </filter>
    <filter id="burstGlow" x="-30%" y="-30%" width="160%" height="160%">
      <feGaussianBlur stdDeviation="7" result="blur"/>
      <feColorMatrix type="matrix" in="blur" values="0.1 0 0 0 0.05  0.4 0.7 0.3 0 0.2  0.3 0.5 0.4 0 0.2  0 0 0 0.4 0" result="coloredBlur"/>
      <feMerge><feMergeNode in="coloredBlur"/><feMergeNode in="SourceGraphic"/></feMerge>
    </filter>
    <filter id="badgeGlow" x="-40%" y="-40%" width="180%" height="180%">
      <feGaussianBlur stdDeviation="2.5" result="blur"/>
      <feMerge><feMergeNode in="blur"/><feMergeNode in="SourceGraphic"/></feMerge>
    </filter>
  </defs>
  <g filter="url(#burstGlow)" opacity="0.5" transform="translate(97,94)">
    <line x1="0" y1="-52" x2="0" y2="-38" stroke="#38d9c0" stroke-width="1.8" stroke-linecap="round"/>
    <line x1="37" y1="-37" x2="27" y2="-27" stroke="#38d9c0" stroke-width="1.4" stroke-linecap="round"/>
    <line x1="52" y1="0" x2="38" y2="0" stroke="#38d9c0" stroke-width="1.8" stroke-linecap="round"/>
    <line x1="37" y1="37" x2="27" y2="27" stroke="#38d9c0" stroke-width="1.4" stroke-linecap="round"/>
    <line x1="0" y1="52" x2="0" y2="38" stroke="#38d9c0" stroke-width="1.8" stroke-linecap="round"/>
    <line x1="-37" y1="37" x2="-27" y2="27" stroke="#38d9c0" stroke-width="1.4" stroke-linecap="round"/>
    <line x1="-52" y1="0" x2="-38" y2="0" stroke="#38d9c0" stroke-width="1.8" stroke-linecap="round"/>
    <line x1="-37" y1="-37" x2="-27" y2="-27" stroke="#38d9c0" stroke-width="1.4" stroke-linecap="round"/>
  </g>
  <g filter="url(#brainAura)">
    <path d="M97,38 C78,38 63,49 59,62 C52,69 48,78 48,89 C46,98 49,107 54,113 C52,120 53,128 58,134 C63,142 72,146 82,146 C88,148 93,148 97,148" fill="url(#brainFill)" stroke="#1a4a8a" stroke-width="1.5" opacity="0.9"/>
    <path d="M97,38 C116,38 131,49 135,62 C142,69 146,78 146,89 C148,98 145,107 140,113 C142,120 141,128 136,134 C131,142 122,146 112,146 C106,148 101,148 97,148" fill="url(#brainFill)" stroke="#1a4a8a" stroke-width="1.5" opacity="0.9"/>
    <rect x="90" y="146" width="14" height="16" rx="4" fill="url(#brainFill)" stroke="#1a4a8a" stroke-width="1.2"/>
    <line x1="97" y1="40" x2="97" y2="146" stroke="#0d2d60" stroke-width="1.8" opacity="0.7"/>
    <path d="M70,64 C73,70 71,79 67,85" fill="none" stroke="#1852a0" stroke-width="1.2" opacity="0.6"/>
    <path d="M60,95 C66,98 67,108 63,114" fill="none" stroke="#1852a0" stroke-width="1.2" opacity="0.6"/>
    <path d="M82,52 C84,61 80,70 78,77" fill="none" stroke="#1852a0" stroke-width="1" opacity="0.5"/>
    <path d="M124,64 C121,70 123,79 127,85" fill="none" stroke="#1852a0" stroke-width="1.2" opacity="0.6"/>
    <path d="M134,95 C128,98 127,108 131,114" fill="none" stroke="#1852a0" stroke-width="1.2" opacity="0.6"/>
    <path d="M112,52 C110,61 114,70 116,77" fill="none" stroke="#1852a0" stroke-width="1" opacity="0.5"/>
  </g>
  <g filter="url(#goldGlow)" stroke="url(#goldScaffold)" fill="none">
    <path d="M55,50 Q97,10 139,50" stroke-width="2.4" stroke-linecap="round"/>
    <path d="M63,52 Q97,20 131,52" stroke-width="1.2" opacity="0.55"/>
    <rect x="91.5" y="8" width="11" height="10" rx="2" fill="url(#goldScaffold)" stroke="none" opacity="0.95"/>
    <line x1="97" y1="10" x2="97" y2="26" stroke-width="1.6"/>
    <line x1="74" y1="28" x2="71" y2="43" stroke-width="1.4" opacity="0.8"/>
    <line x1="120" y1="28" x2="123" y2="43" stroke-width="1.4" opacity="0.8"/>
    <circle cx="55" cy="50" r="3.5" fill="url(#goldScaffold)" stroke="none"/>
    <circle cx="139" cy="50" r="3.5" fill="url(#goldScaffold)" stroke="none"/>
  </g>
  <g filter="url(#badgeGlow)" transform="translate(97,7)">
    <path d="M0,-9 C-1,-6 -4,-4 -3,-1 C-4,2 -2,4 0,5 C2,4 4,2 3,-1 C4,-4 1,-6 0,-9 Z" fill="#ff7c2a" opacity="0.92"/>
    <path d="M0,-6 C-0.5,-4 -2,-2 -1.5,0 C-2,2 -0.5,3 0,3.5 C0.5,3 2,2 1.5,0 C2,-2 0.5,-4 0,-6 Z" fill="#ffc04a" opacity="0.85"/>
  </g>
  <g filter="url(#goldGlow)" stroke="url(#goldScaffold)" fill="none">
    <line x1="30" y1="148" x2="57" y2="90" stroke-width="2.8" stroke-linecap="round"/>
    <path d="M30,148 Q33,112 50,97" stroke-width="1.6" opacity="0.65"/>
    <line x1="30" y1="148" x2="30" y2="172" stroke-width="3.2" stroke-linecap="round"/>
    <rect x="21" y="170" width="18" height="5" rx="1.5" fill="url(#goldScaffold)" opacity="0.9"/>
    <rect x="24" y="167" width="12" height="4" rx="1" fill="url(#goldScaffold)" opacity="0.75"/>
    <rect x="24" y="144" width="12" height="5" rx="1.5" fill="url(#goldScaffold)" opacity="0.85"/>
    <line x1="36" y1="136" x2="43" y2="116" stroke-width="1.1" opacity="0.65"/>
    <line x1="42" y1="122" x2="50" y2="104" stroke-width="1.1" opacity="0.65"/>
    <circle cx="57" cy="90" r="4" fill="url(#goldScaffold)" stroke="none" opacity="0.95"/>
    <path d="M25,160 Q28,138 43,120" stroke-width="0.9" opacity="0.4"/>
  </g>
  <g filter="url(#goldGlow)" stroke="url(#goldScaffold)" fill="none">
    <line x1="164" y1="148" x2="137" y2="90" stroke-width="2.8" stroke-linecap="round"/>
    <path d="M164,148 Q161,112 144,97" stroke-width="1.6" opacity="0.65"/>
    <line x1="164" y1="148" x2="164" y2="172" stroke-width="3.2" stroke-linecap="round"/>
    <rect x="155" y="170" width="18" height="5" rx="1.5" fill="url(#goldScaffold)" opacity="0.9"/>
    <rect x="158" y="167" width="12" height="4" rx="1" fill="url(#goldScaffold)" opacity="0.75"/>
    <rect x="158" y="144" width="12" height="5" rx="1.5" fill="url(#goldScaffold)" opacity="0.85"/>
    <line x1="158" y1="136" x2="151" y2="116" stroke-width="1.1" opacity="0.65"/>
    <line x1="152" y1="122" x2="144" y2="104" stroke-width="1.1" opacity="0.65"/>
    <circle cx="137" cy="90" r="4" fill="url(#goldScaffold)" stroke="none" opacity="0.95"/>
    <path d="M169,160 Q166,138 151,120" stroke-width="0.9" opacity="0.4"/>
  </g>
  <g stroke="url(#goldSoft)" fill="none">
    <path d="M50,112 Q41,128 41,148 L54,148" stroke-width="1.8"/>
    <path d="M144,112 Q153,128 153,148 L140,148" stroke-width="1.8"/>
    <line x1="30" y1="172" x2="164" y2="172" stroke-width="1.2" opacity="0.35"/>
  </g>
  <g fill="url(#tealAccent)" filter="url(#tealGlow)">
    <circle cx="97" cy="10.5" r="2.2" opacity="0.9"/>
    <circle cx="55" cy="50" r="2" opacity="0.8" fill="#38d9c0"/>
    <circle cx="139" cy="50" r="2" opacity="0.8" fill="#38d9c0"/>
    <circle cx="30" cy="172" r="2.5" opacity="0.85"/>
    <circle cx="164" cy="172" r="2.5" opacity="0.85"/>
    <circle cx="43" cy="120" r="1.8" opacity="0.75"/>
    <circle cx="151" cy="120" r="1.8" opacity="0.75"/>
  </g>
</svg>
